<svg width="33" height="29" viewBox="0 0 33 29" fill="none" xmlns="http://www.w3.org/2000/svg">
<g clip-path="url(#clip0_2_108)">
<path d="M16.2464 0.722473C7.44185 0.722473 0.757058 6.3144 0.757058 13.2068C0.690648 14.7524 1.03062 16.2893 1.74599 17.6774C2.46137 19.0655 3.52939 20.2606 4.85272 21.154V21.154C5.2948 23.1012 5.18769 25.1256 4.54233 27.0204C4.48848 27.1927 4.48557 27.3758 4.5339 27.5495C4.58223 27.7233 4.67994 27.8809 4.81622 28.0049C4.95251 28.129 5.12207 28.2147 5.3062 28.2527C5.49032 28.2906 5.68184 28.2792 5.8596 28.2197L13.8768 25.5105C14.694 25.6258 15.5187 25.6862 16.3448 25.6911C25.1494 25.6911 32.243 20.0992 32.243 13.2068C32.243 6.3144 25.0509 0.722473 16.2464 0.722473Z" stroke="#8FD0C1" stroke-width="2" stroke-linecap="round" stroke-linejoin="round"/>
<path d="M13.7405 25.5105C11.9402 25.1775 10.204 24.5829 8.59256 23.7476" stroke="#8FD0C1" stroke-width="2" stroke-linecap="round" stroke-linejoin="round"/>
<path d="M9.72058 15.3453C10.7115 15.3453 11.5148 14.5787 11.5148 13.633C11.5148 12.6874 10.7115 11.9208 9.72058 11.9208C8.72966 11.9208 7.92636 12.6874 7.92636 13.633C7.92636 14.5787 8.72966 15.3453 9.72058 15.3453Z" fill="#8FD0C1"/>
<path d="M16.746 15.3453C17.737 15.3453 18.5403 14.5787 18.5403 13.633C18.5403 12.6874 17.737 11.9208 16.746 11.9208C15.7551 11.9208 14.9518 12.6874 14.9518 13.633C14.9518 14.5787 15.7551 15.3453 16.746 15.3453Z" fill="#8FD0C1"/>
<path d="M23.7715 15.3453C24.7624 15.3453 25.5657 14.5787 25.5657 13.633C25.5657 12.6874 24.7624 11.9208 23.7715 11.9208C22.7806 11.9208 21.9773 12.6874 21.9773 13.633C21.9773 14.5787 22.7806 15.3453 23.7715 15.3453Z" fill="#8FD0C1"/>
</g>
<defs>
<clipPath id="clip0_2_108">
<rect width="33" height="29" fill="white"/>
</clipPath>
</defs>
</svg>
